{
	"asset":{
		"generator":"Khronos glTF Blender I/O v4.4.56",
		"version":"2.0"
	},
	"scene":0,
	"scenes":[
		{
			"name":"Scene",
			"nodes":[
				10,
				19
			]
		}
	],
	"nodes":[
		{
			"mesh":0,
			"name":"bookstore",
			"rotation":[
				0.5,
				0.5,
				-0.5,
				0.5
			],
			"scale":[
				8.595821380615234,
				7,
				7.959219455718994
			],
			"translation":[
				-11.465920448303223,
				4.587134838104248,
				5.206503868103027
			]
		},
		{
			"mesh":1,
			"name":"mesh",
			"rotation":[
				0,
				-0.32289591431617737,
				0,
				0.946434497833252
			],
			"translation":[
				1.6998112201690674,
				0,
				-7.367151260375977
			]
		},
		{
			"mesh":2,
			"name":"mesh.002",
			"rotation":[
				0,
				0.45511388778686523,
				0,
				0.8904332518577576
			],
			"translation":[
				-10.418896675109863,
				0,
				2.92079758644104
			]
		},
		{
			"mesh":3,
			"name":"mural1",
			"rotation":[
				0.5,
				0.5,
				-0.5,
				0.5
			],
			"scale":[
				5.772679328918457,
				5.1464524269104,
				6.904873371124268
			],
			"translation":[
				-11.659323692321777,
				4.993124008178711,
				-8.009766578674316
			]
		},
		{
			"mesh":4,
			"name":"mural2",
			"rotation":[
				0.7071068286895752,
				0,
				0,
				0.7071068286895752
			],
			"scale":[
				4.028216361999512,
				1,
				3.202850818634033
			],
			"translation":[
				-14.27714729309082,
				5.446621894836426,
				-4.855571269989014
			]
		},
		{
			"mesh":5,
			"name":"Plane",
			"rotation":[
				0,
				0,
				-0.7071068286895752,
				0.7071068286895752
			],
			"scale":[
				4.103909969329834,
				1,
				8.09247875213623
			],
			"translation":[
				-11.683037757873535,
				4.360717296600342,
				-12.976473808288574
			]
		},
		{
			"mesh":6,
			"name":"Plane.001",
			"rotation":[
				-0.5,
				0.5,
				-0.5,
				0.5000000596046448
			],
			"scale":[
				4.103909969329834,
				1,
				5.713804721832275
			],
			"translation":[
				-17.37784767150879,
				4.413819313049316,
				-4.9331183433532715
			]
		},
		{
			"mesh":7,
			"name":"Plane.002",
			"rotation":[
				-0.5,
				0.5,
				-0.5,
				0.5000000596046448
			],
			"scale":[
				2.7101433277130127,
				1,
				1.670030117034912
			],
			"translation":[
				-10.700780868530273,
				3.0580873489379883,
				-21.120912551879883
			]
		},
		{
			"mesh":8,
			"name":"Plane.003",
			"rotation":[
				0.7071068286895752,
				-0.7071068286895752,
				0,
				1.1520234011186403e-07
			],
			"scale":[
				2.7101433277130127,
				1,
				1.670030117034912
			],
			"translation":[
				-8.655920028686523,
				3.0697083473205566,
				-22.7841796875
			]
		},
		{
			"name":"root.002",
			"rotation":[
				0,
				0.46155649423599243,
				0,
				0.8871109485626221
			],
			"translation":[
				-10.284263610839844,
				0,
				2.831061363220215
			]
		},
		{
			"children":[
				0,
				1,
				2,
				3,
				4,
				5,
				6,
				7,
				8,
				9
			],
			"name":"NorthWall"
		},
		{
			"mesh":9,
			"name":"apt1",
			"rotation":[
				0.5,
				-0.5,
				0.5,
				0.5
			],
			"scale":[
				7.300000190734863,
				7,
				7.889682292938232
			],
			"translation":[
				1.293660044670105,
				4.826982498168945,
				-2.8646512031555176
			]
		},
		{
			"mesh":10,
			"name":"apt2",
			"rotation":[
				0.5,
				-0.5,
				0.5,
				0.5
			],
			"scale":[
				8,
				8,
				8
			],
			"translation":[
				1.22637140750885,
				4.750394821166992,
				6.9982194900512695
			]
		},
		{
			"mesh":11,
			"name":"back_bldng1",
			"rotation":[
				0.5,
				-0.5,
				0.5,
				0.5
			],
			"scale":[
				8.546764373779297,
				7,
				8.320759773254395
			],
			"translation":[
				-3.5230865478515625,
				4.597641944885254,
				-15.017663955688477
			]
		},
		{
			"mesh":12,
			"name":"back_bldng2",
			"rotation":[
				0.5,
				-0.5,
				0.5,
				0.5
			],
			"scale":[
				8.966073989868164,
				7,
				8.966073989868164
			],
			"translation":[
				-3.517648220062256,
				4.313951015472412,
				-20.146928787231445
			]
		},
		{
			"mesh":13,
			"name":"deli",
			"rotation":[
				0.7071068286895752,
				0,
				0,
				0.7071068286895752
			],
			"scale":[
				7,
				7,
				5.877864837646484
			],
			"translation":[
				-1.5015976428985596,
				5.846502780914307,
				-12.549890518188477
			]
		},
		{
			"mesh":14,
			"name":"mesh.001",
			"rotation":[
				0,
				-0.37219730019569397,
				0,
				0.9281536340713501
			],
			"translation":[
				-0.19012731313705444,
				0,
				0.18853208422660828
			]
		},
		{
			"mesh":15,
			"name":"restaurant",
			"rotation":[
				0.5,
				-0.5,
				0.5,
				0.5
			],
			"scale":[
				7,
				7,
				7.144071578979492
			],
			"translation":[
				1.7587517499923706,
				5.20444393157959,
				-10.306493759155273
			]
		},
		{
			"name":"root.001",
			"rotation":[
				0,
				-0.3807365298271179,
				0,
				0.9246835708618164
			]
		},
		{
			"children":[
				11,
				12,
				13,
				14,
				15,
				16,
				17,
				18
			],
			"name":"SouthWall"
		}
	],
	"materials":[
		{
			"alphaMode":"BLEND",
			"doubleSided":true,
			"name":"bookstore",
			"pbrMetallicRoughness":{
				"baseColorTexture":{
					"index":0
				},
				"metallicFactor":0,
				"roughnessFactor":0.5
			}
		},
		{
			"name":"main",
			"pbrMetallicRoughness":{
				"baseColorTexture":{
					"index":1
				},
				"metallicFactor":0
			}
		},
		{
			"name":"main.003",
			"pbrMetallicRoughness":{
				"baseColorTexture":{
					"index":2
				},
				"metallicFactor":0
			}
		},
		{
			"alphaMode":"BLEND",
			"doubleSided":true,
			"name":"mural1",
			"pbrMetallicRoughness":{
				"baseColorTexture":{
					"index":3
				},
				"metallicFactor":0,
				"roughnessFactor":0.5
			}
		},
		{
			"alphaMode":"BLEND",
			"doubleSided":true,
			"name":"mural2",
			"pbrMetallicRoughness":{
				"baseColorTexture":{
					"index":4
				},
				"metallicFactor":0,
				"roughnessFactor":0.5
			}
		},
		{
			"alphaMode":"BLEND",
			"doubleSided":true,
			"name":"apt1",
			"pbrMetallicRoughness":{
				"baseColorTexture":{
					"index":5
				},
				"metallicFactor":0,
				"roughnessFactor":0.5
			}
		},
		{
			"alphaMode":"BLEND",
			"doubleSided":true,
			"name":"apt2",
			"pbrMetallicRoughness":{
				"baseColorTexture":{
					"index":6
				},
				"metallicFactor":0,
				"roughnessFactor":0.5
			}
		},
		{
			"alphaMode":"BLEND",
			"doubleSided":true,
			"name":"back_bldng1",
			"pbrMetallicRoughness":{
				"baseColorTexture":{
					"index":7
				},
				"metallicFactor":0,
				"roughnessFactor":0.5
			}
		},
		{
			"alphaMode":"BLEND",
			"doubleSided":true,
			"name":"back_bldng2",
			"pbrMetallicRoughness":{
				"baseColorTexture":{
					"index":8
				},
				"metallicFactor":0,
				"roughnessFactor":0.5
			}
		},
		{
			"alphaMode":"BLEND",
			"doubleSided":true,
			"name":"deli",
			"pbrMetallicRoughness":{
				"baseColorTexture":{
					"index":9
				},
				"metallicFactor":0,
				"roughnessFactor":0.5
			}
		},
		{
			"name":"main.002",
			"pbrMetallicRoughness":{
				"baseColorTexture":{
					"index":10
				},
				"metallicFactor":0
			}
		},
		{
			"alphaMode":"BLEND",
			"doubleSided":true,
			"name":"restaurant",
			"pbrMetallicRoughness":{
				"baseColorTexture":{
					"index":11
				},
				"metallicFactor":0,
				"roughnessFactor":0.5
			}
		}
	],
	"meshes":[
		{
			"name":"bookstore",
			"primitives":[
				{
					"attributes":{
						"POSITION":0,
						"NORMAL":1,
						"TEXCOORD_0":2
					},
					"indices":3,
					"material":0
				}
			]
		},
		{
			"name":"mesh",
			"primitives":[
				{
					"attributes":{
						"POSITION":4,
						"NORMAL":5,
						"TEXCOORD_0":6
					},
					"indices":7,
					"material":1
				}
			]
		},
		{
			"name":"mesh.003",
			"primitives":[
				{
					"attributes":{
						"POSITION":8,
						"NORMAL":9,
						"TEXCOORD_0":10
					},
					"indices":11,
					"material":2
				}
			]
		},
		{
			"name":"mural1",
			"primitives":[
				{
					"attributes":{
						"POSITION":12,
						"NORMAL":13,
						"TEXCOORD_0":14
					},
					"indices":3,
					"material":3
				}
			]
		},
		{
			"name":"mural2",
			"primitives":[
				{
					"attributes":{
						"POSITION":15,
						"NORMAL":16,
						"TEXCOORD_0":17
					},
					"indices":18,
					"material":4
				}
			]
		},
		{
			"name":"Plane",
			"primitives":[
				{
					"attributes":{
						"POSITION":19,
						"NORMAL":20,
						"TEXCOORD_0":21
					},
					"indices":22
				}
			]
		},
		{
			"name":"Plane.001",
			"primitives":[
				{
					"attributes":{
						"POSITION":23,
						"NORMAL":24,
						"TEXCOORD_0":25
					},
					"indices":26
				}
			]
		},
		{
			"name":"Plane.003",
			"primitives":[
				{
					"attributes":{
						"POSITION":27,
						"NORMAL":28,
						"TEXCOORD_0":29
					},
					"indices":26
				}
			]
		},
		{
			"name":"Plane.004",
			"primitives":[
				{
					"attributes":{
						"POSITION":30,
						"NORMAL":31,
						"TEXCOORD_0":32
					},
					"indices":33
				}
			]
		},
		{
			"name":"apt1",
			"primitives":[
				{
					"attributes":{
						"POSITION":34,
						"NORMAL":35,
						"TEXCOORD_0":36
					},
					"indices":3,
					"material":5
				}
			]
		},
		{
			"name":"apt2",
			"primitives":[
				{
					"attributes":{
						"POSITION":37,
						"NORMAL":38,
						"TEXCOORD_0":39
					},
					"indices":3,
					"material":6
				}
			]
		},
		{
			"name":"back_bldng1",
			"primitives":[
				{
					"attributes":{
						"POSITION":40,
						"NORMAL":41,
						"TEXCOORD_0":42
					},
					"indices":43,
					"material":7
				}
			]
		},
		{
			"name":"back_bldng2",
			"primitives":[
				{
					"attributes":{
						"POSITION":44,
						"NORMAL":45,
						"TEXCOORD_0":46
					},
					"indices":3,
					"material":8
				}
			]
		},
		{
			"name":"deli",
			"primitives":[
				{
					"attributes":{
						"POSITION":47,
						"NORMAL":48,
						"TEXCOORD_0":49
					},
					"indices":50,
					"material":9
				}
			]
		},
		{
			"name":"mesh.002",
			"primitives":[
				{
					"attributes":{
						"POSITION":51,
						"NORMAL":52,
						"TEXCOORD_0":53
					},
					"indices":54,
					"material":10
				}
			]
		},
		{
			"name":"restaurant",
			"primitives":[
				{
					"attributes":{
						"POSITION":55,
						"NORMAL":56,
						"TEXCOORD_0":57
					},
					"indices":3,
					"material":11
				}
			]
		}
	],
	"textures":[
		{
			"sampler":0,
			"source":0
		},
		{
			"sampler":1,
			"source":1
		},
		{
			"sampler":1,
			"source":2
		},
		{
			"sampler":0,
			"source":3
		},
		{
			"sampler":0,
			"source":4
		},
		{
			"sampler":0,
			"source":5
		},
		{
			"sampler":0,
			"source":6
		},
		{
			"sampler":0,
			"source":7
		},
		{
			"sampler":0,
			"source":8
		},
		{
			"sampler":0,
			"source":9
		},
		{
			"sampler":1,
			"source":10
		},
		{
			"sampler":0,
			"source":11
		}
	],
	"images":[
		{
			"mimeType":"image/png",
			"name":"bookstore",
			"uri":"bookstore.png"
		},
		{
			"mimeType":"image/jpeg",
			"name":"texture",
			"uri":"texture.jpg"
		},
		{
			"mimeType":"image/jpeg",
			"name":"texture.jpg",
			"uri":"texture_jpg.jpg"
		},
		{
			"mimeType":"image/png",
			"name":"mural1",
			"uri":"mural1.png"
		},
		{
			"mimeType":"image/png",
			"name":"mural2",
			"uri":"mural2.png"
		},
		{
			"mimeType":"image/png",
			"name":"apt1",
			"uri":"apt1.png"
		},
		{
			"mimeType":"image/png",
			"name":"apt2",
			"uri":"apt2.png"
		},
		{
			"mimeType":"image/png",
			"name":"back_bldng1",
			"uri":"back_bldng1.png"
		},
		{
			"mimeType":"image/png",
			"name":"back_bldng2",
			"uri":"back_bldng2.png"
		},
		{
			"mimeType":"image/png",
			"name":"deli",
			"uri":"deli.png"
		},
		{
			"mimeType":"image/jpeg",
			"name":"texture.jpg",
			"uri":"texture_jpg-1.jpg"
		},
		{
			"mimeType":"image/png",
			"name":"restaurant",
			"uri":"restaurant.png"
		}
	],
	"accessors":[
		{
			"bufferView":0,
			"componentType":5126,
			"count":4,
			"max":[
				0.7234464287757874,
				0,
				0.5
			],
			"min":[
				-0.7234464287757874,
				0,
				-0.5
			],
			"type":"VEC3"
		},
		{
			"bufferView":1,
			"componentType":5126,
			"count":4,
			"type":"VEC3"
		},
		{
			"bufferView":2,
			"componentType":5126,
			"count":4,
			"type":"VEC2"
		},
		{
			"bufferView":3,
			"componentType":5123,
			"count":6,
			"type":"SCALAR"
		},
		{
			"bufferView":4,
			"componentType":5126,
			"count":826174,
			"max":[
				0.7401704788208008,
				6.542572975158691,
				12.674415588378906
			],
			"min":[
				-19.490407943725586,
				-0.09859144687652588,
				-10.563847541809082
			],
			"type":"VEC3"
		},
		{
			"bufferView":5,
			"componentType":5126,
			"count":826174,
			"type":"VEC3"
		},
		{
			"bufferView":6,
			"componentType":5126,
			"count":826174,
			"type":"VEC2"
		},
		{
			"bufferView":7,
			"componentType":5125,
			"count":827250,
			"type":"SCALAR"
		},
		{
			"bufferView":8,
			"componentType":5126,
			"count":692138,
			"max":[
				13.507227897644043,
				7.173948287963867,
				13.499935150146484
			],
			"min":[
				-7.711390495300293,
				-0.08369660377502441,
				-14.91373348236084
			],
			"type":"VEC3"
		},
		{
			"bufferView":9,
			"componentType":5126,
			"count":692138,
			"type":"VEC3"
		},
		{
			"bufferView":10,
			"componentType":5126,
			"count":692138,
			"type":"VEC2"
		},
		{
			"bufferView":11,
			"componentType":5125,
			"count":693075,
			"type":"SCALAR"
		},
		{
			"bufferView":12,
			"componentType":5126,
			"count":4,
			"max":[
				0.49955928325653076,
				0,
				0.5
			],
			"min":[
				-0.49955928325653076,
				0,
				-0.5
			],
			"type":"VEC3"
		},
		{
			"bufferView":13,
			"componentType":5126,
			"count":4,
			"type":"VEC3"
		},
		{
			"bufferView":14,
			"componentType":5126,
			"count":4,
			"type":"VEC2"
		},
		{
			"bufferView":15,
			"componentType":5126,
			"count":8,
			"max":[
				0.5650067329406738,
				8.80108075307362e-09,
				0.5
			],
			"min":[
				-0.5650067329406738,
				-1.505101998588998e-08,
				-0.49532997608184814
			],
			"type":"VEC3"
		},
		{
			"bufferView":16,
			"componentType":5126,
			"count":8,
			"type":"VEC3"
		},
		{
			"bufferView":17,
			"componentType":5126,
			"count":8,
			"type":"VEC2"
		},
		{
			"bufferView":18,
			"componentType":5123,
			"count":18,
			"type":"SCALAR"
		},
		{
			"bufferView":19,
			"componentType":5126,
			"count":24,
			"max":[
				1,
				0,
				1
			],
			"min":[
				-1,
				-0.10770224779844284,
				-1
			],
			"type":"VEC3"
		},
		{
			"bufferView":20,
			"componentType":5126,
			"count":24,
			"type":"VEC3"
		},
		{
			"bufferView":21,
			"componentType":5126,
			"count":24,
			"type":"VEC2"
		},
		{
			"bufferView":22,
			"componentType":5123,
			"count":36,
			"type":"SCALAR"
		},
		{
			"bufferView":23,
			"componentType":5126,
			"count":24,
			"max":[
				1,
				0.12340671569108963,
				1
			],
			"min":[
				-1,
				0,
				-1
			],
			"type":"VEC3"
		},
		{
			"bufferView":24,
			"componentType":5126,
			"count":24,
			"type":"VEC3"
		},
		{
			"bufferView":25,
			"componentType":5126,
			"count":24,
			"type":"VEC2"
		},
		{
			"bufferView":26,
			"componentType":5123,
			"count":36,
			"type":"SCALAR"
		},
		{
			"bufferView":27,
			"componentType":5126,
			"count":24,
			"max":[
				1,
				0.13677780330181122,
				1.2619211673736572
			],
			"min":[
				-1.073903203010559,
				-1.912006730719895e-08,
				-1
			],
			"type":"VEC3"
		},
		{
			"bufferView":28,
			"componentType":5126,
			"count":24,
			"type":"VEC3"
		},
		{
			"bufferView":29,
			"componentType":5126,
			"count":24,
			"type":"VEC2"
		},
		{
			"bufferView":30,
			"componentType":5126,
			"count":24,
			"max":[
				1,
				0.23709814250469208,
				1.2619211673736572
			],
			"min":[
				-1.073903203010559,
				-1.912006730719895e-08,
				-1
			],
			"type":"VEC3"
		},
		{
			"bufferView":31,
			"componentType":5126,
			"count":24,
			"type":"VEC3"
		},
		{
			"bufferView":32,
			"componentType":5126,
			"count":24,
			"type":"VEC2"
		},
		{
			"bufferView":33,
			"componentType":5123,
			"count":36,
			"type":"SCALAR"
		},
		{
			"bufferView":34,
			"componentType":5126,
			"count":4,
			"max":[
				0.7234464287757874,
				0,
				0.5
			],
			"min":[
				-0.7234464287757874,
				0,
				-0.5
			],
			"type":"VEC3"
		},
		{
			"bufferView":35,
			"componentType":5126,
			"count":4,
			"type":"VEC3"
		},
		{
			"bufferView":36,
			"componentType":5126,
			"count":4,
			"type":"VEC2"
		},
		{
			"bufferView":37,
			"componentType":5126,
			"count":4,
			"max":[
				0.6088585257530212,
				0,
				0.5
			],
			"min":[
				-0.6088585257530212,
				0,
				-0.5
			],
			"type":"VEC3"
		},
		{
			"bufferView":38,
			"componentType":5126,
			"count":4,
			"type":"VEC3"
		},
		{
			"bufferView":39,
			"componentType":5126,
			"count":4,
			"type":"VEC2"
		},
		{
			"bufferView":40,
			"componentType":5126,
			"count":10,
			"max":[
				0.3190833032131195,
				0,
				0.5
			],
			"min":[
				-0.3190833032131195,
				0,
				-0.5
			],
			"type":"VEC3"
		},
		{
			"bufferView":41,
			"componentType":5126,
			"count":10,
			"type":"VEC3"
		},
		{
			"bufferView":42,
			"componentType":5126,
			"count":10,
			"type":"VEC2"
		},
		{
			"bufferView":43,
			"componentType":5123,
			"count":24,
			"type":"SCALAR"
		},
		{
			"bufferView":44,
			"componentType":5126,
			"count":4,
			"max":[
				0.27016305923461914,
				0,
				0.5
			],
			"min":[
				-0.27016305923461914,
				0,
				-0.5
			],
			"type":"VEC3"
		},
		{
			"bufferView":45,
			"componentType":5126,
			"count":4,
			"type":"VEC3"
		},
		{
			"bufferView":46,
			"componentType":5126,
			"count":4,
			"type":"VEC2"
		},
		{
			"bufferView":47,
			"componentType":5126,
			"count":20,
			"max":[
				0.4579109847545624,
				0,
				0.5
			],
			"min":[
				-0.4579109847545624,
				0,
				-0.5
			],
			"type":"VEC3"
		},
		{
			"bufferView":48,
			"componentType":5126,
			"count":20,
			"type":"VEC3"
		},
		{
			"bufferView":49,
			"componentType":5126,
			"count":20,
			"type":"VEC2"
		},
		{
			"bufferView":50,
			"componentType":5123,
			"count":66,
			"type":"SCALAR"
		},
		{
			"bufferView":51,
			"componentType":5126,
			"count":776791,
			"max":[
				9.052042007446289,
				7.006820201873779,
				12.281248092651367
			],
			"min":[
				-11.430562973022461,
				-0.18409335613250732,
				-10.408056259155273
			],
			"type":"VEC3"
		},
		{
			"bufferView":52,
			"componentType":5126,
			"count":776791,
			"type":"VEC3"
		},
		{
			"bufferView":53,
			"componentType":5126,
			"count":776791,
			"type":"VEC2"
		},
		{
			"bufferView":54,
			"componentType":5125,
			"count":777588,
			"type":"SCALAR"
		},
		{
			"bufferView":55,
			"componentType":5126,
			"count":4,
			"max":[
				0.3237108886241913,
				0,
				0.5
			],
			"min":[
				-0.3237108886241913,
				0,
				-0.5
			],
			"type":"VEC3"
		},
		{
			"bufferView":56,
			"componentType":5126,
			"count":4,
			"type":"VEC3"
		},
		{
			"bufferView":57,
			"componentType":5126,
			"count":4,
			"type":"VEC2"
		}
	],
	"bufferViews":[
		{
			"buffer":0,
			"byteLength":48,
			"byteOffset":0,
			"target":34962
		},
		{
			"buffer":0,
			"byteLength":48,
			"byteOffset":48,
			"target":34962
		},
		{
			"buffer":0,
			"byteLength":32,
			"byteOffset":96,
			"target":34962
		},
		{
			"buffer":0,
			"byteLength":12,
			"byteOffset":128,
			"target":34963
		},
		{
			"buffer":0,
			"byteLength":9914088,
			"byteOffset":140,
			"target":34962
		},
		{
			"buffer":0,
			"byteLength":9914088,
			"byteOffset":9914228,
			"target":34962
		},
		{
			"buffer":0,
			"byteLength":6609392,
			"byteOffset":19828316,
			"target":34962
		},
		{
			"buffer":0,
			"byteLength":3309000,
			"byteOffset":26437708,
			"target":34963
		},
		{
			"buffer":0,
			"byteLength":8305656,
			"byteOffset":29746708,
			"target":34962
		},
		{
			"buffer":0,
			"byteLength":8305656,
			"byteOffset":38052364,
			"target":34962
		},
		{
			"buffer":0,
			"byteLength":5537104,
			"byteOffset":46358020,
			"target":34962
		},
		{
			"buffer":0,
			"byteLength":2772300,
			"byteOffset":51895124,
			"target":34963
		},
		{
			"buffer":0,
			"byteLength":48,
			"byteOffset":54667424,
			"target":34962
		},
		{
			"buffer":0,
			"byteLength":48,
			"byteOffset":54667472,
			"target":34962
		},
		{
			"buffer":0,
			"byteLength":32,
			"byteOffset":54667520,
			"target":34962
		},
		{
			"buffer":0,
			"byteLength":96,
			"byteOffset":54667552,
			"target":34962
		},
		{
			"buffer":0,
			"byteLength":96,
			"byteOffset":54667648,
			"target":34962
		},
		{
			"buffer":0,
			"byteLength":64,
			"byteOffset":54667744,
			"target":34962
		},
		{
			"buffer":0,
			"byteLength":36,
			"byteOffset":54667808,
			"target":34963
		},
		{
			"buffer":0,
			"byteLength":288,
			"byteOffset":54667844,
			"target":34962
		},
		{
			"buffer":0,
			"byteLength":288,
			"byteOffset":54668132,
			"target":34962
		},
		{
			"buffer":0,
			"byteLength":192,
			"byteOffset":54668420,
			"target":34962
		},
		{
			"buffer":0,
			"byteLength":72,
			"byteOffset":54668612,
			"target":34963
		},
		{
			"buffer":0,
			"byteLength":288,
			"byteOffset":54668684,
			"target":34962
		},
		{
			"buffer":0,
			"byteLength":288,
			"byteOffset":54668972,
			"target":34962
		},
		{
			"buffer":0,
			"byteLength":192,
			"byteOffset":54669260,
			"target":34962
		},
		{
			"buffer":0,
			"byteLength":72,
			"byteOffset":54669452,
			"target":34963
		},
		{
			"buffer":0,
			"byteLength":288,
			"byteOffset":54669524,
			"target":34962
		},
		{
			"buffer":0,
			"byteLength":288,
			"byteOffset":54669812,
			"target":34962
		},
		{
			"buffer":0,
			"byteLength":192,
			"byteOffset":54670100,
			"target":34962
		},
		{
			"buffer":0,
			"byteLength":288,
			"byteOffset":54670292,
			"target":34962
		},
		{
			"buffer":0,
			"byteLength":288,
			"byteOffset":54670580,
			"target":34962
		},
		{
			"buffer":0,
			"byteLength":192,
			"byteOffset":54670868,
			"target":34962
		},
		{
			"buffer":0,
			"byteLength":72,
			"byteOffset":54671060,
			"target":34963
		},
		{
			"buffer":0,
			"byteLength":48,
			"byteOffset":54671132,
			"target":34962
		},
		{
			"buffer":0,
			"byteLength":48,
			"byteOffset":54671180,
			"target":34962
		},
		{
			"buffer":0,
			"byteLength":32,
			"byteOffset":54671228,
			"target":34962
		},
		{
			"buffer":0,
			"byteLength":48,
			"byteOffset":54671260,
			"target":34962
		},
		{
			"buffer":0,
			"byteLength":48,
			"byteOffset":54671308,
			"target":34962
		},
		{
			"buffer":0,
			"byteLength":32,
			"byteOffset":54671356,
			"target":34962
		},
		{
			"buffer":0,
			"byteLength":120,
			"byteOffset":54671388,
			"target":34962
		},
		{
			"buffer":0,
			"byteLength":120,
			"byteOffset":54671508,
			"target":34962
		},
		{
			"buffer":0,
			"byteLength":80,
			"byteOffset":54671628,
			"target":34962
		},
		{
			"buffer":0,
			"byteLength":48,
			"byteOffset":54671708,
			"target":34963
		},
		{
			"buffer":0,
			"byteLength":48,
			"byteOffset":54671756,
			"target":34962
		},
		{
			"buffer":0,
			"byteLength":48,
			"byteOffset":54671804,
			"target":34962
		},
		{
			"buffer":0,
			"byteLength":32,
			"byteOffset":54671852,
			"target":34962
		},
		{
			"buffer":0,
			"byteLength":240,
			"byteOffset":54671884,
			"target":34962
		},
		{
			"buffer":0,
			"byteLength":240,
			"byteOffset":54672124,
			"target":34962
		},
		{
			"buffer":0,
			"byteLength":160,
			"byteOffset":54672364,
			"target":34962
		},
		{
			"buffer":0,
			"byteLength":132,
			"byteOffset":54672524,
			"target":34963
		},
		{
			"buffer":0,
			"byteLength":9321492,
			"byteOffset":54672656,
			"target":34962
		},
		{
			"buffer":0,
			"byteLength":9321492,
			"byteOffset":63994148,
			"target":34962
		},
		{
			"buffer":0,
			"byteLength":6214328,
			"byteOffset":73315640,
			"target":34962
		},
		{
			"buffer":0,
			"byteLength":3110352,
			"byteOffset":79529968,
			"target":34963
		},
		{
			"buffer":0,
			"byteLength":48,
			"byteOffset":82640320,
			"target":34962
		},
		{
			"buffer":0,
			"byteLength":48,
			"byteOffset":82640368,
			"target":34962
		},
		{
			"buffer":0,
			"byteLength":32,
			"byteOffset":82640416,
			"target":34962
		}
	],
	"samplers":[
		{
			"magFilter":9729,
			"minFilter":9987,
			"wrapS":33071,
			"wrapT":33071
		},
		{
			"magFilter":9729,
			"minFilter":9987
		}
	],
	"buffers":[
		{
			"byteLength":82640448,
			"uri":"radford.bin"
		}
	]
}
